HIERARCHY
ROOT hip
{
  OFFSET 0 0 0
  CHANNELS 6 Xposition Yposition Zposition Zrotation Yrotation Xrotation
  JOINT abdomen
  {
    OFFSET 0 20.6881 -0.73152
    CHANNELS 3 Zrotation Xrotation Yrotation
    JOINT chest
    {
      OFFSET 0 11.7043 -0.48768
      CHANNELS 3 Zrotation Xrotation Yrotation
      JOINT neck
      {
        OFFSET 0 22.1894 -2.19456
        CHANNELS 3 Zrotation Xrotation Yrotation
        JOINT head
        {
          OFFSET -0.24384 7.07133 1.2192
          CHANNELS 3 Zrotation Xrotation Yrotation
          JOINT leftEye
          {
            OFFSET 4.14528 8.04674 8.04672
            CHANNELS 3 Zrotation Xrotation Yrotation
            End Site
            {
              OFFSET 1 0 0
            }
          }
          JOINT rightEye
          {
            OFFSET -3.6576 8.04674 8.04672
            CHANNELS 3 Zrotation Xrotation Yrotation
            End Site
            {
              OFFSET 1 0 0
            }
          }
        }
      }
      JOINT rCollar
      {
        OFFSET -2.68224 19.2634 -4.8768
        CHANNELS 3 Zrotation Xrotation Yrotation
        JOINT rShldr
        {
          OFFSET -8.77824 -1.95073 1.46304
          CHANNELS 3 Zrotation Xrotation Yrotation
          JOINT rForeArm
          {
            OFFSET -28.1742 -1.7115 0.48768
            CHANNELS 3 Zrotation Xrotation Yrotation
            JOINT rHand
            {
              OFFSET -22.5879 0.773209 7.07136
              CHANNELS 3 Zrotation Xrotation Yrotation
              JOINT rThumb1
              {
                OFFSET -1.2192 -0.487915 3.41376
                CHANNELS 3 Zrotation Xrotation Yrotation
                JOINT rThumb2
                {
                  OFFSET -3.37035 -0.52449 3.41376
                  CHANNELS 3 Zrotation Xrotation Yrotation
                  End Site
                  {
                    OFFSET -1.78271 -1.18214 1.43049
                  }
                }
              }
              JOINT rIndex1
              {
                OFFSET -7.75947 0.938293 5.60832
                CHANNELS 3 Zrotation Xrotation Yrotation
                JOINT rIndex2
                {
                  OFFSET -2.54057 -0.884171 1.56538
                  CHANNELS 3 Zrotation Xrotation Yrotation
                  End Site
                  {
                    OFFSET -1.62519 -0.234802 1.16502
                  }
                }
              }
              JOINT rMid1
              {
                OFFSET -8.24714 1.18213 3.41376
                CHANNELS 3 Zrotation Xrotation Yrotation
                JOINT rMid2
                {
                  OFFSET -3.10165 -0.590103 1.0647
                  CHANNELS 3 Zrotation Xrotation Yrotation
                  End Site
                  {
                    OFFSET -2.48547 -0.328903 0.83742
                  }
                }
              }
              JOINT rRing1
              {
                OFFSET -8.82822 0.546677 1.51678
                CHANNELS 3 Zrotation Xrotation Yrotation
                JOINT rRing2
                {
                  OFFSET -2.60934 -0.819778 -0.0198488
                  CHANNELS 3 Zrotation Xrotation Yrotation
                  End Site
                  {
                    OFFSET -2.33842 -0.294052 0.168128
                  }
                }
              }
              JOINT rPinky1
              {
                OFFSET -8.27202 -0.0477905 -0.4584
                CHANNELS 3 Zrotation Xrotation Yrotation
                JOINT rPinky2
                {
                  OFFSET -1.82734 -0.647385 -0.700984
                  CHANNELS 3 Zrotation Xrotation Yrotation
                  End Site
                  {
                    OFFSET -1.69225 -0.51767 -0.607171
                  }
                }
              }
            }
          }
        }
      }
      JOINT lCollar
      {
        OFFSET 2.68224 19.2634 -4.8768
        CHANNELS 3 Zrotation Xrotation Yrotation
        JOINT lShldr
        {
          OFFSET 8.77824 -1.95073 1.46304
          CHANNELS 3 Zrotation Xrotation Yrotation
          JOINT lForeArm
          {
            OFFSET 28.1742 -1.7115 0.48768
            CHANNELS 3 Zrotation Xrotation Yrotation
            JOINT lHand
            {
              OFFSET 22.5879 0.773209 7.07136
              CHANNELS 3 Zrotation Xrotation Yrotation
              JOINT lThumb1
              {
                OFFSET 1.2192 -0.487915 3.41376
                CHANNELS 3 Zrotation Xrotation Yrotation
                JOINT lThumb2
                {
                  OFFSET 3.37035 -0.52449 3.41376
                  CHANNELS 3 Zrotation Xrotation Yrotation
                  End Site
                  {
                    OFFSET 1.78271 -1.18214 1.43049
                  }
                }
              }
              JOINT lIndex1
              {
                OFFSET 7.75947 0.938293 5.60832
                CHANNELS 3 Zrotation Xrotation Yrotation
                JOINT lIndex2
                {
                  OFFSET 2.54057 -0.884171 1.56538
                  CHANNELS 3 Zrotation Xrotation Yrotation
                  End Site
                  {
                    OFFSET 1.62519 -0.234802 1.16502
                  }
                }
              }
              JOINT lMid1
              {
                OFFSET 8.24714 1.18213 3.41376
                CHANNELS 3 Zrotation Xrotation Yrotation
                JOINT lMid2
                {
                  OFFSET 3.10165 -0.590103 1.0647
                  CHANNELS 3 Zrotation Xrotation Yrotation
                  End Site
                  {
                    OFFSET 2.48547 -0.328903 0.83742
                  }
                }
              }
              JOINT lRing1
              {
                OFFSET 8.82822 0.546677 1.51678
                CHANNELS 3 Zrotation Xrotation Yrotation
                JOINT lRing2
                {
                  OFFSET 2.60934 -0.819778 -0.0198488
                  CHANNELS 3 Zrotation Xrotation Yrotation
                  End Site
                  {
                    OFFSET 2.33842 -0.294052 0.168128
                  }
                }
              }
              JOINT lPinky1
              {
                OFFSET 8.27202 -0.0477905 -0.4584
                CHANNELS 3 Zrotation Xrotation Yrotation
                JOINT lPinky2
                {
                  OFFSET 1.82734 -0.647385 -0.700984
                  CHANNELS 3 Zrotation Xrotation Yrotation
                  End Site
                  {
                    OFFSET 1.69225 -0.51767 -0.607171
                  }
                }
              }
            }
          }
        }
      }
    }
  }
  JOINT rButtock
  {
    OFFSET -8.77824 4.35084 1.2192
    CHANNELS 3 Zrotation Xrotation Yrotation
    JOINT rThigh
    {
      OFFSET 0 -1.70687 -2.19456
      CHANNELS 3 Zrotation Xrotation Yrotation
      JOINT rShin
      {
        OFFSET 0 -36.8199 0.73152
        CHANNELS 3 Zrotation Xrotation Yrotation
        JOINT rFoot
        {
          OFFSET 0.73152 -45.1104 -5.12064
          CHANNELS 3 Zrotation Xrotation Yrotation
          End Site
          {
            OFFSET -1.1221 -3.69964 12.103
          }
        }
      }
    }
  }
  JOINT lButtock
  {
    OFFSET 8.77824 4.35084 1.2192
    CHANNELS 3 Zrotation Xrotation Yrotation
    JOINT lThigh
    {
      OFFSET 0 -1.70687 -2.19456
      CHANNELS 3 Zrotation Xrotation Yrotation
      JOINT lShin
      {
        OFFSET 0 -36.8199 0.73152
        CHANNELS 3 Zrotation Xrotation Yrotation
        JOINT lFoot
        {
          OFFSET -0.73152 -45.1104 -5.12064
          CHANNELS 3 Zrotation Xrotation Yrotation
          End Site
          {
            OFFSET 1.1221 -3.69964 12.103
          }
        }
      }
    }
  }
}
MOTION
Frames:	4
Frame Time:	0.00833333
-68.9633 84.8839 -42.2149 0.0 0.0 0.0 -0.194077 -0.000752047 -0.00553943 -0.0535364 -0.00112971 -0.00927449 -3.7609e-15 0.0 1.86361e-17 -1.13245e-14 3.18055e-15 4.96962e-17 -0.0 0.0 0.0 -0.0 0.0 0.0 -1.88985e-15 -3.88251e-19 9.93923e-17 -3.66133e-14 -1.61513e-16 1.19271e-15 -6.77508e-13 2.06935e-13 1.27222e-14 -7.80302e-12 -1.92771e-13 3.18055e-14 -1.83994e-11 3.29914e-14 7.31528e-14 -3.17821e-11 5.40694e-14 1.23246e-13 -1.83931e-11 3.69739e-14 7.31528e-14 7.73091 5.47488 0.417314 -1.83995e-11 3.3197e-14 7.63333e-14 2.90554 0.965183 0.102902 -1.83887e-11 3.3694e-14 7.4743e-14 10.2786 0.731801 0.0259123 -1.83991e-11 3.22031e-14 8.26944e-14 2.22167 -0.733487 -0.20892 -1.88719e-15 -7.76503e-19 -9.93923e-17 -4.17329e-14 -2.67117e-16 -1.19271e-15 -6.8372e-13 -2.03754e-13 1.90833e-14 -7.80004e-12 2.03903e-13 1.59028e-14 -1.84034e-11 3.19948e-15 7.31528e-14 -3.17853e-11 3.18055e-15 1.29608e-13 -1.8411e-11 4.37326e-15 8.5875e-14 -7.73091 5.47488 -0.417314 -1.84035e-11 3.27995e-15 7.63333e-14 -2.90554 0.965183 -0.102902 -1.84105e-11 3.18055e-15 7.55382e-14 -10.2786 0.731801 -0.0259123 -1.84035e-11 3.18055e-15 7.31528e-14 -2.22167 -0.733487 0.20892 -2.03217e-16 0.0 -3.88251e-19 0.355856 -2.82714 -0.0340695 -0.00665508 -0.431854 -0.0584474 -0.502547 3.25829 0.1238 2.03217e-16 0.0 3.88251e-19 -0.651359 -3.58303 0.0525571 0.00446 0.937455 0.0381203 0.504967 2.64491 -0.111592
-65.6818 83.5804 -44.9254 -4.4986 57.8666 -1.4899 -0.95578 1.74126 -2.51268 1.08292 -1.1269 -0.700694 -4.51291 4.26716 -5.05843 7.06195 -2.02753 -9.57193 -0.0 0.0 0.0 -0.0 0.0 0.0 -1.33031e-14 5.70923e-14 -1.46625e-13 22.2204 4.16792 0.164912 -4.06343 -1.81628 6.37892 0.0106661 2.29127 0.321087 1.63616e-09 1.84584e-09 -7.45461e-10 2.82326e-09 3.21833e-09 -1.30452e-09 1.63616e-09 1.84584e-09 -7.45464e-10 7.73091 5.47488 0.417314 1.63615e-09 1.84584e-09 -7.4546e-10 2.90554 0.965183 0.102902 1.63617e-09 1.84584e-09 -7.4546e-10 10.2786 0.731801 0.0259123 1.63615e-09 1.84584e-09 -7.45451e-10 2.22167 -0.733487 -0.20892 -1.3312e-14 5.70934e-14 -1.46879e-13 -22.0456 6.53706 -1.15823 3.83656 -1.6734 -6.06597 -0.0129794 2.52851 -0.354111 1.3442e-09 2.02557e-09 1.36383e-10 2.32497e-09 3.50977e-09 2.23053e-10 1.34419e-09 2.02557e-09 1.36398e-10 -7.73091 5.47488 -0.417314 1.3442e-09 2.02557e-09 1.36386e-10 -2.90554 0.965183 -0.102902 1.3442e-09 2.02557e-09 1.36386e-10 -10.2786 0.731801 -0.0259123 1.3442e-09 2.02557e-09 1.36383e-10 -2.22167 -0.733487 0.20892 -2.03217e-16 0.0 -3.88251e-19 1.57606 -5.73196 1.70679 -0.00882187 7.00781 0.0431308 -0.265312 -1.07408 2.36724 2.03217e-16 0.0 3.88251e-19 -0.683953 -5.56061 0.324312 -0.0112367 7.50028 -0.0846564 0.899021 -1.11675 3.98376
-65.6746 83.5831 -44.9291 -4.5667 58.0169 -1.5709 -1.59351 3.5729 -5.17388 2.25368 -2.31682 -1.4334 -8.46599 8.71091 -10.5189 13.8379 -4.04071 -19.7696 -0.0 0.0 0.0 -0.0 0.0 0.0 -2.73715e-14 1.22015e-13 -3.11138e-13 45.6836 8.58436 0.344989 -7.92277 -3.66164 13.1436 -0.0060629 4.71107 0.66193 3.49515e-09 3.90949e-09 -1.56906e-09 6.03117e-09 6.81654e-09 -2.74609e-09 3.49516e-09 3.90949e-09 -1.56907e-09 7.73091 5.47488 0.417314 3.49514e-09 3.90949e-09 -1.56906e-09 2.90554 0.965183 0.102902 3.49515e-09 3.90949e-09 -1.56906e-09 10.2786 0.731801 0.0259123 3.49514e-09 3.90949e-09 -1.56905e-09 2.22167 -0.733487 -0.20892 -2.73924e-14 1.22018e-13 -3.11452e-13 -45.0558 13.431 -2.43216 7.51019 -3.38041 -12.4963 0.00744067 5.20921 -0.731885 2.88366e-09 4.30504e-09 2.77194e-10 4.98749e-09 7.45951e-09 4.52094e-10 2.88365e-09 4.30503e-09 2.7721e-10 -7.73091 5.47488 -0.417314 2.88366e-09 4.30504e-09 2.77195e-10 -2.90554 0.965183 -0.102902 2.88365e-09 4.30504e-09 2.77197e-10 -10.2786 0.731801 -0.0259123 2.88366e-09 4.30504e-09 2.77194e-10 -2.22167 -0.733487 0.20892 -2.03217e-16 0.0 -3.88251e-19 3.05949 -8.79046 3.56416 -0.0405631 14.8701 0.154914 0.357813 -5.63544 4.77533 2.03217e-16 0.0 3.88251e-19 -0.697335 -7.651 0.609047 0.0036265 14.4418 -0.219968 1.90128 -5.04069 8.35445
-65.6754 83.5926 -44.9387 -4.5782 58.1021 -1.5587 -2.02169 5.18517 -7.55457 3.27421 -3.37646 -2.08675 -11.2624 12.3985 -15.5034 19.2405 -5.40829 -28.838 -0.0 0.0 0.0 -0.0 0.0 0.0 -3.61297e-14 1.71278e-13 -4.40074e-13 66.5879 12.5033 0.505415 -10.9979 -5.17922 19.2086 -0.0455148 6.87295 0.969459 4.94526e-09 5.53745e-09 -2.23653e-09 8.53336e-09 9.65487e-09 -3.91381e-09 4.94528e-09 5.53745e-09 -2.23654e-09 7.73091 5.47488 0.417314 4.94526e-09 5.53745e-09 -2.23653e-09 2.90554 0.965183 0.102902 4.94527e-09 5.53745e-09 -2.23653e-09 10.2786 0.731801 0.0259123 4.94526e-09 5.53745e-09 -2.23652e-09 2.22167 -0.733487 -0.20892 -3.61616e-14 1.71282e-13 -4.40439e-13 -65.3032 19.5781 -3.66419 10.4634 -4.79556 -18.2563 0.055524 7.58437 -1.07067 4.06942e-09 6.0767e-09 4.09004e-10 7.0385e-09 1.05293e-08 6.689e-10 4.0694e-09 6.07669e-09 4.09022e-10 -7.73091 5.47488 -0.417314 4.06942e-09 6.07669e-09 4.09004e-10 -2.90554 0.965183 -0.102902 4.06941e-09 6.0767e-09 4.09008e-10 -10.2786 0.731801 -0.0259123 4.06942e-09 6.0767e-09 4.09004e-10 -2.22167 -0.733487 0.20892 -2.03217e-16 0.0 -3.88251e-19 4.55501 -11.5017 5.26892 -0.0968027 21.8869 0.264373 1.23549 -9.67131 6.95255 2.03217e-16 0.0 3.88251e-19 -0.692116 -9.51492 0.875494 0.0464374 20.6256 -0.350493 3.30091 -8.45232 12.3077
